<svg xmlns="http://www.w3.org/2000/svg" viewBox="0 0 64 64">
  <rect width="64" height="64" rx="12" fill="#1f2937"/>
  <g transform="translate(16 10)" fill="none" stroke-linecap="round" stroke-linejoin="round" stroke-width="3">
    <path d="M16 9c5 0 9 4 9 9v6c0 5-4 11-9 11s-9-6-9-11v-6c0-5 4-9 9-9Z" fill="#f43f5e" stroke="#0f172a"/>
    <path d="M7 22H0m32 0h-7" stroke="#f8fafc"/>
    <path d="M16 12v6M10 14l-4-4m20 4 4-4M10 30l-4 8m20-8 4 8M16 30v10" stroke="#0f172a"/>
    <circle cx="12" cy="21" r="1.5" fill="#0f172a"/>
    <circle cx="20" cy="21" r="1.5" fill="#0f172a"/>
  </g>
</svg>
